<svg width="512" height="512" viewBox="0 0 512 512" fill="none" xmlns="http://www.w3.org/2000/svg">
<path d="M338.848 351C273.248 351 245.648 302.6 245.648 245.4C245.648 188.6 273.248 140.6 338.848 140.6C382.848 140.6 404.448 161.8 415.648 182.6V144.6H484.048V397C484.048 420.6 471.248 431.8 448.848 431.8H276.048V371.4H415.648V308.6C403.248 331.4 380.848 351 338.848 351ZM314.048 245.4C314.048 276.6 331.648 290.6 365.248 290.6C398.448 290.6 415.248 277 415.248 245.4C415.248 214.6 398.448 201 365.248 201C331.648 201 314.048 214.2 314.048 245.4Z" fill="#FA982E"/>
<path d="M22.6406 347V248.2L199.841 195.4H22.6406V144.6H221.841V244.6L45.0406 295.8H221.841V347H22.6406Z" fill="#FA982E"/>
</svg>
